<svg xmlns="http://www.w3.org/2000/svg" viewBox="0 0 46.594 13.953" height="52.736" width="176.105"><g font-weight="700" letter-spacing="0" word-spacing="0"><g style="line-height:100%;-inkscape-font-specification:'Source Code Pro Bold'" aria-label="+------------+ | termtables | +------------+" font-size="3.373" font-family="Source Code Pro" fill="#969696" stroke-width=".265"><path style="line-height:100%;-inkscape-font-specification:'Source Code Pro Bold'" d="M.993 2.664h.61V1.626h.993v-.587h-.993V0h-.61v1.039H0v.587h.993z"/><path style="line-height:100%;-inkscape-font-specification:'Source Code Pro Bold'" d="M3.384 1.626h2.597v-.587H3.384zM6.769 1.626h2.596v-.587H6.77zM10.153 1.626h2.597v-.587h-2.597zM13.538 1.626h2.596v-.587h-2.596zM16.922 1.626h2.597v-.587h-2.597zM20.307 1.626h2.596v-.587h-2.596zM23.691 1.626h2.597v-.587H23.69zM27.076 1.626h2.596v-.587h-2.596zM30.46 1.626h2.597v-.587H30.46zM33.845 1.626h2.596v-.587h-2.596zM37.23 1.626h2.596v-.587h-2.597zM40.614 1.626h2.596v-.587h-2.596zM44.991 2.664h.61V1.626h.993v-.587h-.993V0h-.61v1.039h-.993v.587h.993zM.931 10.25h.734V4.606H.931zM7.356 7.676c0 .734.316 1.23 1.208 1.23.361 0 .666-.078.914-.151l-.146-.599a1.673 1.673 0 01-.56.102c-.406 0-.586-.164-.586-.587v-.982H9.37v-.65H8.186v-.745h-.683l-.108.746-.745.033v.616h.706zM10.069 7.44c0 .925.683 1.467 1.552 1.467.372 0 .79-.124 1.106-.327l-.27-.497c-.249.124-.47.192-.723.192-.412 0-.757-.175-.813-.593h1.885c.012-.068.034-.22.034-.367 0-.762-.451-1.343-1.315-1.343-.745 0-1.456.553-1.456 1.467zm.84-.305c.074-.362.334-.531.633-.531.378 0 .547.214.547.53zM13.797 8.84h.83V7.382c.237-.502.599-.683.943-.683.209 0 .322.028.497.079l.169-.694a1.153 1.153 0 00-.542-.113c-.446 0-.858.22-1.135.677h-.016l-.068-.61h-.678zM16.73 8.84h.78V6.947c.078-.18.146-.27.253-.27.108 0 .164.084.164.259v1.902h.638V6.95c.073-.181.152-.272.26-.272.112 0 .158.085.158.26v1.902h.778V6.875c0-.559-.231-.903-.62-.903-.317 0-.514.203-.616.457-.067-.3-.242-.457-.49-.457-.322 0-.492.186-.599.418h-.023l-.062-.35h-.62zM20.894 7.676c0 .734.316 1.23 1.208 1.23.36 0 .666-.078.914-.151l-.147-.599a1.673 1.673 0 01-.558.102c-.407 0-.587-.164-.587-.587v-.982h1.185v-.65h-1.185v-.745h-.683l-.108.746-.745.033v.616h.706zM23.64 8.06c0 .474.356.847.92.847.362 0 .712-.17.994-.384h.022l.063.316h.677V7.236c0-.858-.48-1.264-1.264-1.264-.48 0-.926.158-1.31.378l.294.542c.316-.158.58-.26.852-.26.378 0 .57.153.598.407-1.326.079-1.846.395-1.846 1.021zm.796-.062c0-.243.226-.418 1.05-.463v.463c-.197.153-.412.265-.66.265-.237 0-.39-.084-.39-.265zM27.087 8.84h.65l.067-.306h.022c.232.243.503.373.762.373.627 0 1.214-.553 1.214-1.518 0-.858-.429-1.417-1.129-1.417-.27 0-.559.118-.779.322l.023-.44v-.972h-.83zm.83-.797V6.91c.175-.18.338-.26.519-.26.35 0 .514.254.514.757 0 .575-.243.824-.548.824a.754.754 0 01-.485-.187zM30.415 5.537h.813v2.207c0 .711.361 1.163 1.067 1.163.35 0 .547-.062.84-.152l-.186-.61c-.175.068-.31.09-.44.09-.231 0-.451-.113-.451-.457V4.882h-1.643zM33.76 7.44c0 .925.683 1.467 1.552 1.467.373 0 .79-.124 1.106-.327l-.27-.497c-.249.124-.469.192-.723.192-.412 0-.756-.175-.813-.593h1.886c.01-.068.033-.22.033-.367 0-.762-.451-1.343-1.315-1.343-.745 0-1.456.553-1.456 1.467zm.841-.305c.073-.362.333-.531.632-.531.378 0 .548.214.548.53zM37.133 8.478c.356.237.87.429 1.372.429.897 0 1.377-.395 1.377-.903 0-.486-.48-.694-1.033-.841-.395-.102-.717-.186-.717-.356 0-.14.136-.22.486-.22.293 0 .564.113.818.265l.373-.496c-.294-.187-.712-.384-1.208-.384-.802 0-1.293.355-1.293.875 0 .446.508.683 1 .818.45.124.75.22.75.39 0 .146-.158.237-.536.237-.373 0-.695-.13-1.016-.333zM44.93 10.25h.733V4.606h-.734zM.993 13.953h.61v-1.039h.993v-.587h-.993V11.29h-.61v1.038H0v.587h.993zM3.384 12.914h2.597v-.587H3.384zM6.769 12.914h2.596v-.587H6.77zM10.153 12.914h2.597v-.587h-2.597zM13.538 12.914h2.596v-.587h-2.596zM16.922 12.914h2.597v-.587h-2.597zM20.307 12.914h2.596v-.587h-2.596zM23.691 12.914h2.597v-.587H23.69zM27.076 12.914h2.596v-.587h-2.596zM30.46 12.914h2.597v-.587H30.46zM33.845 12.914h2.596v-.587h-2.596zM37.23 12.914h2.596v-.587h-2.597zM40.614 12.914h2.596v-.587h-2.596zM44.991 13.953h.61v-1.039h.993v-.587h-.993V11.29h-.61v1.038h-.993v.587h.993z" font-size="5.644"/></g></g></svg>