<?xml version="1.0" encoding="UTF-8" standalone="no"?>
<!-- Created with Inkscape (http://www.inkscape.org/) -->

<svg
   xmlns:dc="http://purl.org/dc/elements/1.1/"
   xmlns:cc="http://creativecommons.org/ns#"
   xmlns:rdf="http://www.w3.org/1999/02/22-rdf-syntax-ns#"
   xmlns:svg="http://www.w3.org/2000/svg"
   xmlns="http://www.w3.org/2000/svg"
   xmlns:sodipodi="http://sodipodi.sourceforge.net/DTD/sodipodi-0.dtd"
   xmlns:inkscape="http://www.inkscape.org/namespaces/inkscape"
   width="46.594448mm"
   height="13.953067mm"
   viewBox="0 0 46.594448 13.953067"
   version="1.1"
   id="svg8"
   inkscape:version="0.92.4 (5da689c313, 2019-01-14)"
   sodipodi:docname="termtables.svg">
  <defs
     id="defs2" />
  <sodipodi:namedview
     id="base"
     pagecolor="#ffffff"
     bordercolor="#666666"
     borderopacity="1.0"
     inkscape:pageopacity="0.0"
     inkscape:pageshadow="2"
     inkscape:zoom="2.8"
     inkscape:cx="32.48305"
     inkscape:cy="19.47152"
     inkscape:document-units="mm"
     inkscape:current-layer="flowRoot885"
     showgrid="false"
     fit-margin-top="0"
     fit-margin-left="0"
     fit-margin-right="0"
     fit-margin-bottom="0"
     inkscape:window-width="1920"
     inkscape:window-height="1009"
     inkscape:window-x="0"
     inkscape:window-y="34"
     inkscape:window-maximized="1" />
  <metadata
     id="metadata5">
    <rdf:RDF>
      <cc:Work
         rdf:about="">
        <dc:format>image/svg+xml</dc:format>
        <dc:type
           rdf:resource="http://purl.org/dc/dcmitype/StillImage" />
        <dc:title />
      </cc:Work>
    </rdf:RDF>
  </metadata>
  <g
     inkscape:label="Layer 1"
     inkscape:groupmode="layer"
     id="layer1"
     transform="translate(-18.301733,-93.194379)">
    <g
       transform="scale(0.26458333)"
       style="font-style:normal;font-variant:normal;font-weight:bold;font-stretch:normal;font-size:96px;line-height:0%;font-family:Baskerville;-inkscape-font-specification:'Baskerville Bold';letter-spacing:0px;word-spacing:0px;fill:#000000;fill-opacity:1;stroke:none;stroke-width:1px;stroke-linecap:butt;stroke-linejoin:miter;stroke-opacity:1"
       id="flowRoot815" />
    <g
       style="font-style:normal;font-variant:normal;font-weight:bold;font-stretch:normal;font-size:3.3734374px;line-height:0%;font-family:monospace;-inkscape-font-specification:'monospace Bold';letter-spacing:0px;word-spacing:0px;fill:#000000;fill-opacity:1;stroke:none;stroke-width:0.26458332px;stroke-linecap:butt;stroke-linejoin:miter;stroke-opacity:1"
       id="text825" />
    <g
       aria-label="

"
       style="font-style:normal;font-variant:normal;font-weight:bold;font-stretch:normal;font-size:3.3734374px;line-height:0%;font-family:Baskerville;-inkscape-font-specification:'Baskerville Bold';letter-spacing:0px;word-spacing:0px;fill:#000000;fill-opacity:1;stroke:none;stroke-width:0.26458332px;stroke-linecap:butt;stroke-linejoin:miter;stroke-opacity:1"
       id="text829" />
    <g
       aria-label="
+------------+
| termtables |
+------------+
"
       style="font-style:normal;font-variant:normal;font-weight:bold;font-stretch:normal;font-size:3.3734374px;line-height:100%;font-family:'Source Code Pro';-inkscape-font-specification:'Source Code Pro Bold';letter-spacing:0px;word-spacing:0px;fill:#000000;fill-opacity:1;stroke:none;stroke-width:0.26458332px;stroke-linecap:butt;stroke-linejoin:miter;stroke-opacity:1"
       id="text837">
      <path
         d="m 19.295155,95.858557 h 0.6096 v -1.038578 h 0.993422 v -0.587022 h -0.993422 v -1.038578 h -0.6096 v 1.038578 h -0.993422 v 0.587022 h 0.993422 z"
         style="font-style:normal;font-variant:normal;font-weight:bold;font-stretch:normal;line-height:100%;font-family:'Source Code Pro';-inkscape-font-specification:'Source Code Pro Bold';stroke-width:0.26458332px"
         id="path45" />
      <path
         d="m 21.686195,94.819979 h 2.596444 v -0.587022 h -2.596444 z"
         style="font-style:normal;font-variant:normal;font-weight:bold;font-stretch:normal;font-size:5.64444447px;line-height:100%;font-family:'Source Code Pro';-inkscape-font-specification:'Source Code Pro Bold';stroke-width:0.26458332px"
         id="path47" />
      <path
         d="m 25.070657,94.819979 h 2.596444 v -0.587022 h -2.596444 z"
         style="font-style:normal;font-variant:normal;font-weight:bold;font-stretch:normal;font-size:5.64444447px;line-height:100%;font-family:'Source Code Pro';-inkscape-font-specification:'Source Code Pro Bold';stroke-width:0.26458332px"
         id="path49" />
      <path
         d="m 28.455118,94.819979 h 2.596445 v -0.587022 h -2.596445 z"
         style="font-style:normal;font-variant:normal;font-weight:bold;font-stretch:normal;font-size:5.64444447px;line-height:100%;font-family:'Source Code Pro';-inkscape-font-specification:'Source Code Pro Bold';stroke-width:0.26458332px"
         id="path51" />
      <path
         d="m 31.839581,94.819979 h 2.596444 v -0.587022 h -2.596444 z"
         style="font-style:normal;font-variant:normal;font-weight:bold;font-stretch:normal;font-size:5.64444447px;line-height:100%;font-family:'Source Code Pro';-inkscape-font-specification:'Source Code Pro Bold';stroke-width:0.26458332px"
         id="path53" />
      <path
         d="m 35.224043,94.819979 h 2.596444 v -0.587022 h -2.596444 z"
         style="font-style:normal;font-variant:normal;font-weight:bold;font-stretch:normal;font-size:5.64444447px;line-height:100%;font-family:'Source Code Pro';-inkscape-font-specification:'Source Code Pro Bold';stroke-width:0.26458332px"
         id="path55" />
      <path
         d="m 38.608503,94.819979 h 2.596445 v -0.587022 h -2.596445 z"
         style="font-style:normal;font-variant:normal;font-weight:bold;font-stretch:normal;font-size:5.64444447px;line-height:100%;font-family:'Source Code Pro';-inkscape-font-specification:'Source Code Pro Bold';stroke-width:0.26458332px"
         id="path57" />
      <path
         d="M 41.992966,94.819979 H 44.58941 V 94.232957 H 41.992966 Z"
         style="font-style:normal;font-variant:normal;font-weight:bold;font-stretch:normal;font-size:5.64444447px;line-height:100%;font-family:'Source Code Pro';-inkscape-font-specification:'Source Code Pro Bold';stroke-width:0.26458332px"
         id="path59" />
      <path
         d="m 45.377428,94.819979 h 2.596445 v -0.587022 h -2.596445 z"
         style="font-style:normal;font-variant:normal;font-weight:bold;font-stretch:normal;font-size:5.64444447px;line-height:100%;font-family:'Source Code Pro';-inkscape-font-specification:'Source Code Pro Bold';stroke-width:0.26458332px"
         id="path61" />
      <path
         d="m 48.76189,94.819979 h 2.596445 V 94.232957 H 48.76189 Z"
         style="font-style:normal;font-variant:normal;font-weight:bold;font-stretch:normal;font-size:5.64444447px;line-height:100%;font-family:'Source Code Pro';-inkscape-font-specification:'Source Code Pro Bold';stroke-width:0.26458332px"
         id="path63" />
      <path
         d="m 52.146353,94.819979 h 2.596444 v -0.587022 h -2.596444 z"
         style="font-style:normal;font-variant:normal;font-weight:bold;font-stretch:normal;font-size:5.64444447px;line-height:100%;font-family:'Source Code Pro';-inkscape-font-specification:'Source Code Pro Bold';stroke-width:0.26458332px"
         id="path65" />
      <path
         d="m 55.530813,94.819979 h 2.596445 v -0.587022 h -2.596445 z"
         style="font-style:normal;font-variant:normal;font-weight:bold;font-stretch:normal;font-size:5.64444447px;line-height:100%;font-family:'Source Code Pro';-inkscape-font-specification:'Source Code Pro Bold';stroke-width:0.26458332px"
         id="path67" />
      <path
         d="m 58.915274,94.819979 h 2.596444 v -0.587022 h -2.596444 z"
         style="font-style:normal;font-variant:normal;font-weight:bold;font-stretch:normal;font-size:5.64444447px;line-height:100%;font-family:'Source Code Pro';-inkscape-font-specification:'Source Code Pro Bold';stroke-width:0.26458332px"
         id="path69" />
      <path
         d="m 63.29316,95.858557 h 0.6096 v -1.038578 h 0.993422 V 94.232957 H 63.90276 v -1.038578 h -0.6096 v 1.038578 h -0.993422 v 0.587022 h 0.993422 z"
         style="font-style:normal;font-variant:normal;font-weight:bold;font-stretch:normal;font-size:5.64444447px;line-height:100%;font-family:'Source Code Pro';-inkscape-font-specification:'Source Code Pro Bold';stroke-width:0.26458332px"
         id="path71" />
      <path
         d="m 19.233066,103.44469 h 0.733778 v -5.644444 h -0.733778 z"
         style="font-style:normal;font-variant:normal;font-weight:bold;font-stretch:normal;font-size:5.64444447px;line-height:100%;font-family:'Source Code Pro';-inkscape-font-specification:'Source Code Pro Bold';stroke-width:0.26458332px"
         id="path73" />
      <path
         d="m 25.657679,100.87082 c 0,0.73378 0.316089,1.23049 1.207911,1.23049 0.361245,0 0.666045,-0.079 0.9144,-0.1524 l -0.146755,-0.59831 c -0.163689,0.0564 -0.344312,0.1016 -0.5588,0.1016 -0.4064,0 -0.587023,-0.16369 -0.587023,-0.58702 v -0.982134 h 1.185334 v -0.649111 h -1.185334 v -0.745067 h -0.682977 l -0.107245,0.745067 -0.745067,0.03387 v 0.615245 h 0.705556 z"
         style="font-style:normal;font-variant:normal;font-weight:bold;font-stretch:normal;font-size:5.64444447px;line-height:100%;font-family:'Source Code Pro';-inkscape-font-specification:'Source Code Pro Bold';stroke-width:0.26458332px"
         id="path75" />
      <path
         d="m 28.370452,100.63376 c 0,0.92569 0.682977,1.46755 1.552222,1.46755 0.372533,0 0.790222,-0.12418 1.106311,-0.32738 l -0.270933,-0.49671 c -0.248356,0.12418 -0.468489,0.19191 -0.722489,0.19191 -0.412045,0 -0.756356,-0.17497 -0.8128,-0.59266 h 1.885244 c 0.01129,-0.0677 0.03387,-0.22014 0.03387,-0.36689 0,-0.762001 -0.451556,-1.343379 -1.315156,-1.343379 -0.745066,0 -1.456266,0.553156 -1.456266,1.467559 z m 0.841022,-0.3048 c 0.07338,-0.361248 0.333022,-0.530581 0.632178,-0.530581 0.378177,0 0.547511,0.214491 0.547511,0.530581 z"
         style="font-style:normal;font-variant:normal;font-weight:bold;font-stretch:normal;font-size:5.64444447px;line-height:100%;font-family:'Source Code Pro';-inkscape-font-specification:'Source Code Pro Bold';stroke-width:0.26458332px"
         id="path77" />
      <path
         d="m 32.099225,102.03358 h 0.829733 v -1.45627 c 0.237067,-0.50235 0.598311,-0.682975 0.942623,-0.682975 0.208844,0 0.321733,0.02822 0.496711,0.07902 l 0.169333,-0.694267 c -0.163689,-0.07338 -0.293511,-0.112889 -0.541867,-0.112889 -0.445911,0 -0.857955,0.220134 -1.134533,0.677334 h -0.01693 l -0.06773,-0.6096 h -0.677333 z"
         style="font-style:normal;font-variant:normal;font-weight:bold;font-stretch:normal;font-size:5.64444447px;line-height:100%;font-family:'Source Code Pro';-inkscape-font-specification:'Source Code Pro Bold';stroke-width:0.26458332px"
         id="path79" />
      <path
         d="m 35.032132,102.03358 h 0.778933 v -1.89089 c 0.07902,-0.180622 0.146756,-0.270933 0.254,-0.270933 0.107245,0 0.163689,0.08467 0.163689,0.259643 v 1.90218 h 0.637822 v -1.89089 c 0.07338,-0.180622 0.1524,-0.270933 0.259645,-0.270933 0.112889,0 0.158044,0.08467 0.158044,0.259643 v 1.90218 h 0.778933 v -1.96427 c 0,-0.558798 -0.231422,-0.903109 -0.620888,-0.903109 -0.316089,0 -0.513645,0.2032 -0.615245,0.4572 -0.06773,-0.299155 -0.242711,-0.4572 -0.491067,-0.4572 -0.321733,0 -0.491066,0.186267 -0.598311,0.417689 h -0.02258 l -0.06209,-0.349955 h -0.620889 z"
         style="font-style:normal;font-variant:normal;font-weight:bold;font-stretch:normal;font-size:5.64444447px;line-height:100%;font-family:'Source Code Pro';-inkscape-font-specification:'Source Code Pro Bold';stroke-width:0.26458332px"
         id="path81" />
      <path
         d="m 39.195526,100.87082 c 0,0.73378 0.316088,1.23049 1.207911,1.23049 0.361244,0 0.666044,-0.079 0.9144,-0.1524 l -0.146756,-0.59831 c -0.163689,0.0564 -0.344311,0.1016 -0.5588,0.1016 -0.4064,0 -0.587022,-0.16369 -0.587022,-0.58702 v -0.982134 h 1.185333 v -0.649111 h -1.185333 v -0.745067 h -0.682978 l -0.107244,0.745067 -0.745067,0.03387 v 0.615245 h 0.705556 z"
         style="font-style:normal;font-variant:normal;font-weight:bold;font-stretch:normal;font-size:5.64444447px;line-height:100%;font-family:'Source Code Pro';-inkscape-font-specification:'Source Code Pro Bold';stroke-width:0.26458332px"
         id="path83" />
      <path
         d="m 41.942166,101.25465 c 0,0.47413 0.3556,0.84666 0.920044,0.84666 0.361245,0 0.7112,-0.16933 0.993422,-0.38382 h 0.02258 l 0.06209,0.31609 h 0.677333 v -1.60302 c 0,-0.857959 -0.479777,-1.264359 -1.264355,-1.264359 -0.479778,0 -0.925689,0.158045 -1.309511,0.378178 l 0.293511,0.541871 c 0.316089,-0.158049 0.581378,-0.259649 0.852311,-0.259649 0.378178,0 0.570089,0.1524 0.598311,0.406399 -1.326444,0.079 -1.845733,0.39511 -1.845733,1.02165 z m 0.795866,-0.0621 c 0,-0.24271 0.225778,-0.41769 1.049867,-0.46285 v 0.46285 c -0.197555,0.1524 -0.412044,0.26529 -0.6604,0.26529 -0.237067,0 -0.389467,-0.0847 -0.389467,-0.26529 z"
         style="font-style:normal;font-variant:normal;font-weight:bold;font-stretch:normal;font-size:5.64444447px;line-height:100%;font-family:'Source Code Pro';-inkscape-font-specification:'Source Code Pro Bold';stroke-width:0.26458332px"
         id="path85" />
      <path
         d="m 45.388717,102.03358 h 0.649111 l 0.06773,-0.3048 h 0.02258 c 0.231422,0.24271 0.502356,0.37253 0.762,0.37253 0.626534,0 1.213556,-0.55315 1.213556,-1.51835 0,-0.857959 -0.428978,-1.416759 -1.128889,-1.416759 -0.270933,0 -0.5588,0.118534 -0.778933,0.321734 l 0.02258,-0.440267 v -0.970844 h -0.829733 z m 0.829733,-0.79587 v -1.13453 c 0.174978,-0.180623 0.338667,-0.259645 0.519289,-0.259645 0.349956,0 0.513645,0.253995 0.513645,0.756355 0,0.57573 -0.242711,0.82409 -0.547511,0.82409 -0.146756,0 -0.327378,-0.0508 -0.485423,-0.18627 z"
         style="font-style:normal;font-variant:normal;font-weight:bold;font-stretch:normal;font-size:5.64444447px;line-height:100%;font-family:'Source Code Pro';-inkscape-font-specification:'Source Code Pro Bold';stroke-width:0.26458332px"
         id="path87" />
      <path
         d="m 48.716735,98.731579 h 0.8128 v 2.206981 c 0,0.7112 0.361244,1.16275 1.0668,1.16275 0.349955,0 0.547511,-0.0621 0.841022,-0.1524 l -0.186267,-0.6096 c -0.174977,0.0677 -0.310444,0.0903 -0.440266,0.0903 -0.231422,0 -0.451556,-0.11289 -0.451556,-0.4572 v -2.895596 h -1.642533 z"
         style="font-style:normal;font-variant:normal;font-weight:bold;font-stretch:normal;font-size:5.64444447px;line-height:100%;font-family:'Source Code Pro';-inkscape-font-specification:'Source Code Pro Bold';stroke-width:0.26458332px"
         id="path89" />
      <path
         d="m 52.061686,100.63376 c 0,0.92569 0.682978,1.46755 1.552222,1.46755 0.372534,0 0.790223,-0.12418 1.106311,-0.32738 l -0.270933,-0.49671 c -0.248355,0.12418 -0.468489,0.19191 -0.722489,0.19191 -0.412044,0 -0.756355,-0.17497 -0.8128,-0.59266 h 1.885245 c 0.01129,-0.0677 0.03387,-0.22014 0.03387,-0.36689 0,-0.762001 -0.451555,-1.343379 -1.315155,-1.343379 -0.745067,0 -1.456267,0.553156 -1.456267,1.467559 z m 0.841022,-0.3048 c 0.07338,-0.361248 0.333023,-0.530581 0.632178,-0.530581 0.378178,0 0.547511,0.214491 0.547511,0.530581 z"
         style="font-style:normal;font-variant:normal;font-weight:bold;font-stretch:normal;font-size:5.64444447px;line-height:100%;font-family:'Source Code Pro';-inkscape-font-specification:'Source Code Pro Bold';stroke-width:0.26458332px"
         id="path91" />
      <path
         d="m 55.434858,101.67233 c 0.3556,0.23707 0.869244,0.42898 1.3716,0.42898 0.897466,0 1.377244,-0.39511 1.377244,-0.90311 0,-0.48542 -0.479778,-0.69427 -1.032933,-0.84102 -0.395111,-0.1016 -0.716845,-0.18627 -0.716845,-0.3556 0,-0.141112 0.135467,-0.220134 0.485423,-0.220134 0.293511,0 0.564444,0.112889 0.818444,0.265284 l 0.372533,-0.496706 c -0.293511,-0.186267 -0.7112,-0.383823 -1.207911,-0.383823 -0.801511,0 -1.292578,0.3556 -1.292578,0.874889 0,0.44591 0.508,0.68298 0.999067,0.81844 0.451556,0.12418 0.750711,0.22014 0.750711,0.38947 0,0.14676 -0.158044,0.23707 -0.536222,0.23707 -0.372533,0 -0.694267,-0.12982 -1.016,-0.33302 z"
         style="font-style:normal;font-variant:normal;font-weight:bold;font-stretch:normal;font-size:5.64444447px;line-height:100%;font-family:'Source Code Pro';-inkscape-font-specification:'Source Code Pro Bold';stroke-width:0.26458332px"
         id="path93" />
      <path
         d="m 63.231071,103.44469 h 0.733778 v -5.644444 h -0.733778 z"
         style="font-style:normal;font-variant:normal;font-weight:bold;font-stretch:normal;font-size:5.64444447px;line-height:100%;font-family:'Source Code Pro';-inkscape-font-specification:'Source Code Pro Bold';stroke-width:0.26458332px"
         id="path95" />
      <path
         d="m 19.295155,107.14745 h 0.6096 v -1.03858 h 0.993422 v -0.58702 h -0.993422 v -1.03858 h -0.6096 v 1.03858 h -0.993422 v 0.58702 h 0.993422 z"
         style="font-style:normal;font-variant:normal;font-weight:bold;font-stretch:normal;font-size:5.64444447px;line-height:100%;font-family:'Source Code Pro';-inkscape-font-specification:'Source Code Pro Bold';stroke-width:0.26458332px"
         id="path97" />
      <path
         d="m 21.686195,106.10887 h 2.596444 v -0.58702 h -2.596444 z"
         style="font-style:normal;font-variant:normal;font-weight:bold;font-stretch:normal;font-size:5.64444447px;line-height:100%;font-family:'Source Code Pro';-inkscape-font-specification:'Source Code Pro Bold';stroke-width:0.26458332px"
         id="path99" />
      <path
         d="m 25.070657,106.10887 h 2.596444 v -0.58702 h -2.596444 z"
         style="font-style:normal;font-variant:normal;font-weight:bold;font-stretch:normal;font-size:5.64444447px;line-height:100%;font-family:'Source Code Pro';-inkscape-font-specification:'Source Code Pro Bold';stroke-width:0.26458332px"
         id="path101" />
      <path
         d="m 28.455118,106.10887 h 2.596445 v -0.58702 h -2.596445 z"
         style="font-style:normal;font-variant:normal;font-weight:bold;font-stretch:normal;font-size:5.64444447px;line-height:100%;font-family:'Source Code Pro';-inkscape-font-specification:'Source Code Pro Bold';stroke-width:0.26458332px"
         id="path103" />
      <path
         d="m 31.839581,106.10887 h 2.596444 v -0.58702 h -2.596444 z"
         style="font-style:normal;font-variant:normal;font-weight:bold;font-stretch:normal;font-size:5.64444447px;line-height:100%;font-family:'Source Code Pro';-inkscape-font-specification:'Source Code Pro Bold';stroke-width:0.26458332px"
         id="path105" />
      <path
         d="m 35.224043,106.10887 h 2.596444 v -0.58702 h -2.596444 z"
         style="font-style:normal;font-variant:normal;font-weight:bold;font-stretch:normal;font-size:5.64444447px;line-height:100%;font-family:'Source Code Pro';-inkscape-font-specification:'Source Code Pro Bold';stroke-width:0.26458332px"
         id="path107" />
      <path
         d="m 38.608503,106.10887 h 2.596445 v -0.58702 h -2.596445 z"
         style="font-style:normal;font-variant:normal;font-weight:bold;font-stretch:normal;font-size:5.64444447px;line-height:100%;font-family:'Source Code Pro';-inkscape-font-specification:'Source Code Pro Bold';stroke-width:0.26458332px"
         id="path109" />
      <path
         d="m 41.992966,106.10887 h 2.596444 v -0.58702 h -2.596444 z"
         style="font-style:normal;font-variant:normal;font-weight:bold;font-stretch:normal;font-size:5.64444447px;line-height:100%;font-family:'Source Code Pro';-inkscape-font-specification:'Source Code Pro Bold';stroke-width:0.26458332px"
         id="path111" />
      <path
         d="m 45.377428,106.10887 h 2.596445 v -0.58702 h -2.596445 z"
         style="font-style:normal;font-variant:normal;font-weight:bold;font-stretch:normal;font-size:5.64444447px;line-height:100%;font-family:'Source Code Pro';-inkscape-font-specification:'Source Code Pro Bold';stroke-width:0.26458332px"
         id="path113" />
      <path
         d="m 48.76189,106.10887 h 2.596445 v -0.58702 H 48.76189 Z"
         style="font-style:normal;font-variant:normal;font-weight:bold;font-stretch:normal;font-size:5.64444447px;line-height:100%;font-family:'Source Code Pro';-inkscape-font-specification:'Source Code Pro Bold';stroke-width:0.26458332px"
         id="path115" />
      <path
         d="m 52.146353,106.10887 h 2.596444 v -0.58702 h -2.596444 z"
         style="font-style:normal;font-variant:normal;font-weight:bold;font-stretch:normal;font-size:5.64444447px;line-height:100%;font-family:'Source Code Pro';-inkscape-font-specification:'Source Code Pro Bold';stroke-width:0.26458332px"
         id="path117" />
      <path
         d="m 55.530813,106.10887 h 2.596445 v -0.58702 h -2.596445 z"
         style="font-style:normal;font-variant:normal;font-weight:bold;font-stretch:normal;font-size:5.64444447px;line-height:100%;font-family:'Source Code Pro';-inkscape-font-specification:'Source Code Pro Bold';stroke-width:0.26458332px"
         id="path119" />
      <path
         d="m 58.915274,106.10887 h 2.596444 v -0.58702 h -2.596444 z"
         style="font-style:normal;font-variant:normal;font-weight:bold;font-stretch:normal;font-size:5.64444447px;line-height:100%;font-family:'Source Code Pro';-inkscape-font-specification:'Source Code Pro Bold';stroke-width:0.26458332px"
         id="path121" />
      <path
         d="m 63.29316,107.14745 h 0.6096 v -1.03858 h 0.993422 v -0.58702 H 63.90276 v -1.03858 h -0.6096 v 1.03858 h -0.993422 v 0.58702 h 0.993422 z"
         style="font-style:normal;font-variant:normal;font-weight:bold;font-stretch:normal;font-size:5.64444447px;line-height:100%;font-family:'Source Code Pro';-inkscape-font-specification:'Source Code Pro Bold';stroke-width:0.26458332px"
         id="path123" />
    </g>
    <g
       transform="scale(0.26458333)"
       style="font-style:normal;font-variant:normal;font-weight:bold;font-stretch:normal;font-size:12.75px;line-height:0%;font-family:Baskerville;-inkscape-font-specification:'Baskerville Bold';letter-spacing:0px;word-spacing:0px;fill:#000000;fill-opacity:1;stroke:none;stroke-width:1px;stroke-linecap:butt;stroke-linejoin:miter;stroke-opacity:1"
       id="flowRoot841" />
    <g
       aria-label="


"
       transform="scale(0.26458333)"
       style="font-style:normal;font-variant:normal;font-weight:bold;font-stretch:normal;font-size:12.75px;line-height:0%;font-family:Baskerville;-inkscape-font-specification:'Baskerville Bold';letter-spacing:0px;word-spacing:0px;fill:#000000;fill-opacity:1;stroke:none;stroke-width:1px;stroke-linecap:butt;stroke-linejoin:miter;stroke-opacity:1"
       id="flowRoot849" />
    <g
       transform="scale(0.26458333)"
       style="font-style:normal;font-variant:normal;font-weight:bold;font-stretch:normal;font-size:12.75px;line-height:0%;font-family:Baskerville;-inkscape-font-specification:'Baskerville Bold';letter-spacing:0px;word-spacing:0px;fill:#000000;fill-opacity:1;stroke:none;stroke-width:1px;stroke-linecap:butt;stroke-linejoin:miter;stroke-opacity:1"
       id="flowRoot877" />
    <g
       transform="scale(0.26458333)"
       style="font-style:normal;font-variant:normal;font-weight:bold;font-stretch:normal;font-size:12.75px;line-height:0%;font-family:Baskerville;-inkscape-font-specification:'Baskerville Bold';letter-spacing:0px;word-spacing:0px;fill:#000000;fill-opacity:1;stroke:none;stroke-width:1px;stroke-linecap:butt;stroke-linejoin:miter;stroke-opacity:1"
       id="flowRoot885" />
  </g>
</svg>
